<svg width="73" height="66" viewBox="0 0 73 66" fill="none" xmlns="http://www.w3.org/2000/svg">
<g filter="url(#filter0_d)">
<path d="M66.5 40.4091C66.5 48.1951 60.0179 54.6087 51.8947 54.6087C43.7716 54.6087 37.2895 48.1951 37.2895 40.4091C37.2895 32.6231 43.7716 26.2095 51.8947 26.2095C60.0179 26.2095 66.5 32.6231 66.5 40.4091Z" stroke="white" stroke-width="5"/>
</g>
<g filter="url(#filter1_d)">
<path d="M52.8158 27.0494C52.8158 39.4469 42.5046 49.5988 29.6579 49.5988C16.8112 49.5988 6.5 39.4469 6.5 27.0494C6.5 14.6519 16.8112 4.5 29.6579 4.5C42.5046 4.5 52.8158 14.6519 52.8158 27.0494Z" stroke="white" stroke-width="5"/>
</g>
<g filter="url(#filter2_d)">
<path d="M58.5 11.2273C58.5 15.991 54.5275 19.9545 49.5 19.9545C44.4725 19.9545 40.5 15.991 40.5 11.2273C40.5 6.46356 44.4725 2.5 49.5 2.5C54.5275 2.5 58.5 6.46356 58.5 11.2273Z" stroke="white" stroke-width="5"/>
</g>
<defs>
<filter id="filter0_d" x="30.7895" y="23.7095" width="42.2105" height="41.3992" filterUnits="userSpaceOnUse" color-interpolation-filters="sRGB">
<feFlood flood-opacity="0" result="BackgroundImageFix"/>
<feColorMatrix in="SourceAlpha" type="matrix" values="0 0 0 0 0 0 0 0 0 0 0 0 0 0 0 0 0 0 127 0"/>
<feOffset dy="4"/>
<feGaussianBlur stdDeviation="2"/>
<feColorMatrix type="matrix" values="0 0 0 0 0 0 0 0 0 0 0 0 0 0 0 0 0 0 0.25 0"/>
<feBlend mode="normal" in2="BackgroundImageFix" result="effect1_dropShadow"/>
<feBlend mode="normal" in="SourceGraphic" in2="effect1_dropShadow" result="shape"/>
</filter>
<filter id="filter1_d" x="0" y="2" width="59.3158" height="58.0988" filterUnits="userSpaceOnUse" color-interpolation-filters="sRGB">
<feFlood flood-opacity="0" result="BackgroundImageFix"/>
<feColorMatrix in="SourceAlpha" type="matrix" values="0 0 0 0 0 0 0 0 0 0 0 0 0 0 0 0 0 0 127 0"/>
<feOffset dy="4"/>
<feGaussianBlur stdDeviation="2"/>
<feColorMatrix type="matrix" values="0 0 0 0 0 0 0 0 0 0 0 0 0 0 0 0 0 0 0.25 0"/>
<feBlend mode="normal" in2="BackgroundImageFix" result="effect1_dropShadow"/>
<feBlend mode="normal" in="SourceGraphic" in2="effect1_dropShadow" result="shape"/>
</filter>
<filter id="filter2_d" x="34" y="0" width="31" height="30.4545" filterUnits="userSpaceOnUse" color-interpolation-filters="sRGB">
<feFlood flood-opacity="0" result="BackgroundImageFix"/>
<feColorMatrix in="SourceAlpha" type="matrix" values="0 0 0 0 0 0 0 0 0 0 0 0 0 0 0 0 0 0 127 0"/>
<feOffset dy="4"/>
<feGaussianBlur stdDeviation="2"/>
<feColorMatrix type="matrix" values="0 0 0 0 0 0 0 0 0 0 0 0 0 0 0 0 0 0 0.25 0"/>
<feBlend mode="normal" in2="BackgroundImageFix" result="effect1_dropShadow"/>
<feBlend mode="normal" in="SourceGraphic" in2="effect1_dropShadow" result="shape"/>
</filter>
</defs>
</svg>
