<svg width="83" height="81" viewBox="0 0 83 81" fill="none" xmlns="http://www.w3.org/2000/svg">
<g filter="url(#filter0_d)">
<path d="M34.2651 41.4804L26.8845 48.7578C21.9532 48.6477 15.1282 50.3938 12.182 60.0431C9.92976 65.15 4 64.8923 4 64.8923C16.3118 78.5518 30.8221 70.8103 34.1362 67.454C37.0471 64.5032 37.4666 60.8961 37.155 58.0109L44.0222 51.2397L34.2651 41.4804ZM30.8619 64.222C28.5557 66.3618 18.2477 71.1314 12.182 66.5071C12.182 66.5071 14.2937 64.8595 15.8922 61.5523C19.7102 51.4108 29.2259 52.9107 29.2259 52.9107L32.4978 56.1428C32.5307 56.1734 34.9424 60.4391 30.8619 64.222ZM76.9661 9.0074C74.2544 6.33087 69.8575 6.33087 67.1481 9.0074L37.6003 38.1875L47.3574 47.9444L76.9661 18.7013C79.678 16.0248 79.678 11.684 76.9661 9.0074Z" fill="white"/>
</g>
<defs>
<filter id="filter0_d" x="0" y="7" width="83" height="73.6922" filterUnits="userSpaceOnUse" color-interpolation-filters="sRGB">
<feFlood flood-opacity="0" result="BackgroundImageFix"/>
<feColorMatrix in="SourceAlpha" type="matrix" values="0 0 0 0 0 0 0 0 0 0 0 0 0 0 0 0 0 0 127 0"/>
<feOffset dy="4"/>
<feGaussianBlur stdDeviation="2"/>
<feColorMatrix type="matrix" values="0 0 0 0 0 0 0 0 0 0 0 0 0 0 0 0 0 0 0.25 0"/>
<feBlend mode="normal" in2="BackgroundImageFix" result="effect1_dropShadow"/>
<feBlend mode="normal" in="SourceGraphic" in2="effect1_dropShadow" result="shape"/>
</filter>
</defs>
</svg>
