<svg width="83" height="83" viewBox="0 0 83 83" fill="none" xmlns="http://www.w3.org/2000/svg">
<g filter="url(#filter0_d)">
<path d="M78.4583 21.4862C78.494 20.2488 78.305 19.1895 77.8917 18.3088C77.4784 17.4278 76.8936 16.8693 76.1377 16.6341L53.2207 9.5052C52.0668 9.14626 50.8831 9.58527 49.6687 10.8235L6.93316 53.9363C6.14431 54.7188 5.49987 55.7207 4.99983 56.9424C4.49953 58.1641 4.22189 59.3901 4.16601 60.6222C4.13022 61.8589 4.31896 62.9178 4.73228 63.799C5.14576 64.6797 5.73017 65.2387 6.48614 65.4739L29.4035 72.6029C30.5576 72.9619 31.741 72.5238 32.9556 71.2846L75.6913 28.1715C76.4794 27.3884 77.124 26.3867 77.6237 25.165C78.125 23.9435 78.4019 22.7175 78.4583 21.4862ZM31.4037 66.1741L8.48602 59.045L24.5117 42.8783L47.4292 50.0074L31.4037 66.1741Z" fill="white"/>
</g>
<defs>
<filter id="filter0_d" x="0.161728" y="9.38412" width="82.3008" height="71.34" filterUnits="userSpaceOnUse" color-interpolation-filters="sRGB">
<feFlood flood-opacity="0" result="BackgroundImageFix"/>
<feColorMatrix in="SourceAlpha" type="matrix" values="0 0 0 0 0 0 0 0 0 0 0 0 0 0 0 0 0 0 127 0"/>
<feOffset dy="4"/>
<feGaussianBlur stdDeviation="2"/>
<feColorMatrix type="matrix" values="0 0 0 0 0 0 0 0 0 0 0 0 0 0 0 0 0 0 0.1 0"/>
<feBlend mode="normal" in2="BackgroundImageFix" result="effect1_dropShadow"/>
<feBlend mode="normal" in="SourceGraphic" in2="effect1_dropShadow" result="shape"/>
</filter>
</defs>
</svg>
