<svg width="86" height="91" viewBox="0 0 86 91" fill="none" xmlns="http://www.w3.org/2000/svg">
<g filter="url(#filter0_d)">
<path d="M80.4583 21.4862C80.494 20.2488 80.305 19.1895 79.8917 18.3088C79.4784 17.4278 78.8936 16.8693 78.1377 16.6341L55.2207 9.5052C54.0668 9.14626 52.8831 9.58527 51.6687 10.8235L8.93316 53.9363C8.14431 54.7188 7.49986 55.7207 6.99983 56.9424C6.49953 58.1641 6.22189 59.3901 6.16601 60.6222C6.13022 61.8589 6.31896 62.9178 6.73228 63.799C7.14576 64.6797 7.73017 65.2387 8.48614 65.4739L31.4035 72.6029C32.5576 72.9619 33.741 72.5238 34.9556 71.2846L77.6913 28.1715C78.4794 27.3884 79.124 26.3867 79.6237 25.165C80.125 23.9435 80.4019 22.7175 80.4583 21.4862ZM33.4037 66.1741L10.486 59.045L26.5117 42.8783L49.4292 50.0074L33.4037 66.1741Z" fill="white"/>
</g>
<defs>
<filter id="filter0_d" x="0.667023" y="0" width="85.2898" height="90.108" filterUnits="userSpaceOnUse" color-interpolation-filters="sRGB">
<feFlood flood-opacity="0" result="BackgroundImageFix"/>
<feColorMatrix in="SourceAlpha" type="matrix" values="0 0 0 0 0 0 0 0 0 0 0 0 0 0 0 0 0 0 127 0"/>
<feOffset dy="4"/>
<feGaussianBlur stdDeviation="2"/>
<feColorMatrix type="matrix" values="0 0 0 0 0 0 0 0 0 0 0 0 0 0 0 0 0 0 0.25 0"/>
<feBlend mode="normal" in2="BackgroundImageFix" result="effect1_dropShadow"/>
<feBlend mode="normal" in="SourceGraphic" in2="effect1_dropShadow" result="shape"/>
</filter>
</defs>
</svg>
