<svg width="110" height="110" viewBox="0 0 110 110" fill="none" xmlns="http://www.w3.org/2000/svg">
<g filter="url(#filter0_d)">
<path d="M25.5 88.5C24.1667 88.5 23.0667 88.0667 22.2 87.2C21.4 86.3333 21 85.2667 21 84C21 83.4667 21.1667 82.8 21.5 82L47 21.8C47.5333 20.6 48.2667 19.6333 49.2 18.9C50.2 18.1 51.4 17.7 52.8 17.7H53.8C55.2 17.7 56.3667 18.1 57.3 18.9C58.3 19.6333 59.0667 20.6 59.6 21.8L85.1 82C85.4333 82.8 85.6 83.4667 85.6 84C85.6 85.2667 85.1667 86.3333 84.3 87.2C83.5 88.0667 82.4333 88.5 81.1 88.5C80.1667 88.5 79.3 88.2667 78.5 87.8C77.7667 87.2667 77.2 86.5667 76.8 85.7L70.3 70.1H36.3L29.8 85.7C29.4 86.5667 28.8 87.2667 28 87.8C27.2667 88.2667 26.4333 88.5 25.5 88.5ZM39.8 61.8H66.8L53.3 29.3L39.8 61.8Z" fill="white"/>
</g>
<defs>
<filter id="filter0_d" x="17" y="17.7" width="72.6" height="78.8" filterUnits="userSpaceOnUse" color-interpolation-filters="sRGB">
<feFlood flood-opacity="0" result="BackgroundImageFix"/>
<feColorMatrix in="SourceAlpha" type="matrix" values="0 0 0 0 0 0 0 0 0 0 0 0 0 0 0 0 0 0 127 0"/>
<feOffset dy="4"/>
<feGaussianBlur stdDeviation="2"/>
<feColorMatrix type="matrix" values="0 0 0 0 0 0 0 0 0 0 0 0 0 0 0 0 0 0 0.2 0"/>
<feBlend mode="normal" in2="BackgroundImageFix" result="effect1_dropShadow"/>
<feBlend mode="normal" in="SourceGraphic" in2="effect1_dropShadow" result="shape"/>
</filter>
</defs>
</svg>
