<svg width="57" height="55" viewBox="0 0 57 55" fill="none" xmlns="http://www.w3.org/2000/svg">
<g filter="url(#filter0_d)">
<path d="M41.0909 7.90909H29.4545C29.4545 7.90909 29.4545 6.81559 29.4545 6.45455C29.4545 5.65123 28.8033 5 28 5C27.1967 5 26.5455 5.65123 26.5455 6.45455C26.5455 7.25786 26.5455 7.90909 26.5455 7.90909H14.9091C13.3025 7.90909 12 9.21155 12 10.8182V13.7273C12 15.3339 13.3025 16.6364 14.9091 16.6364V42.8182C14.9091 44.4248 16.2115 45.7273 17.8182 45.7273H38.1818C39.7885 45.7273 41.0909 44.4248 41.0909 42.8182V16.6364C42.6975 16.6364 44 15.3339 44 13.7273V10.8182C44 9.21155 42.6975 7.90909 41.0909 7.90909ZM38.1818 41.3636C38.1818 42.167 37.5306 42.8182 36.7273 42.8182H19.2727C18.4694 42.8182 17.8182 42.167 17.8182 41.3636V16.6364H20.7273V38.4545C20.7273 39.2579 21.3785 39.9091 22.1818 39.9091C22.9851 39.9091 23.6364 39.2579 23.6364 38.4545L23.654 16.6364H26.5455V38.4545C26.5455 39.2579 27.1967 39.9091 28 39.9091C28.8033 39.9091 29.4545 39.2579 29.4545 38.4545L29.4721 16.6364H32.3812L32.3636 38.4545C32.3636 39.2579 33.0149 39.9091 33.8182 39.9091C34.6215 39.9091 35.2727 39.2579 35.2727 38.4545V16.6364H38.1818V41.3636ZM41.0909 13C41.0909 13.4017 40.7653 13.7273 40.3636 13.7273H15.6364C15.2347 13.7273 14.9091 13.4017 14.9091 13V11.5455C14.9091 11.1438 15.2347 10.8182 15.6364 10.8182H40.3636C40.7653 10.8182 41.0909 11.1438 41.0909 11.5455V13Z" fill="white"/>
</g>
<defs>
<filter id="filter0_d" x="8" y="5" width="40" height="48.7273" filterUnits="userSpaceOnUse" color-interpolation-filters="sRGB">
<feFlood flood-opacity="0" result="BackgroundImageFix"/>
<feColorMatrix in="SourceAlpha" type="matrix" values="0 0 0 0 0 0 0 0 0 0 0 0 0 0 0 0 0 0 127 0"/>
<feOffset dy="4"/>
<feGaussianBlur stdDeviation="2"/>
<feColorMatrix type="matrix" values="0 0 0 0 0 0 0 0 0 0 0 0 0 0 0 0 0 0 0.1 0"/>
<feBlend mode="normal" in2="BackgroundImageFix" result="effect1_dropShadow"/>
<feBlend mode="normal" in="SourceGraphic" in2="effect1_dropShadow" result="shape"/>
</filter>
</defs>
</svg>
