<svg width="62" height="65" viewBox="0 0 62 65" fill="none" xmlns="http://www.w3.org/2000/svg">
<g filter="url(#filter0_d)">
<path fill-rule="evenodd" clip-rule="evenodd" d="M14.2674 36.0731C12.1327 36.0731 10.4663 37.9723 11.1592 39.9914C13.9193 48.0346 21.5484 53.8156 30.5278 53.8156C41.8343 53.8156 51 44.6499 51 33.3435C51 22.037 41.8343 12.8713 30.5278 12.8713V12.8713C29.7594 12.8713 29.163 13.5134 29.163 14.2818V18.3957C29.163 19.1278 29.7957 19.6953 30.5278 19.6953V19.6953C38.0655 19.6953 44.1759 25.8058 44.1759 33.3435C44.1759 40.8811 38.0655 46.9916 30.5278 46.9916C24.9375 46.9916 20.1321 43.6305 18.0224 38.8188C17.3483 37.2813 15.9462 36.0731 14.2674 36.0731V36.0731Z" fill="white"/>
<path d="M18.7201 18.7395C17.8213 17.953 17.8077 16.5591 18.691 15.7552L28.9248 6.44172C30.2025 5.27895 32.2541 6.17392 32.2709 7.9014L32.4504 26.3273C32.4672 28.0548 30.4335 28.9895 29.1334 27.8519L18.7201 18.7395Z" fill="white"/>
</g>
<defs>
<filter id="filter0_d" x="7" y="4" width="48" height="57.8156" filterUnits="userSpaceOnUse" color-interpolation-filters="sRGB">
<feFlood flood-opacity="0" result="BackgroundImageFix"/>
<feColorMatrix in="SourceAlpha" type="matrix" values="0 0 0 0 0 0 0 0 0 0 0 0 0 0 0 0 0 0 127 0"/>
<feOffset dy="4"/>
<feGaussianBlur stdDeviation="2"/>
<feColorMatrix type="matrix" values="0 0 0 0 0 0 0 0 0 0 0 0 0 0 0 0 0 0 0.1 0"/>
<feBlend mode="normal" in2="BackgroundImageFix" result="effect1_dropShadow"/>
<feBlend mode="normal" in="SourceGraphic" in2="effect1_dropShadow" result="shape"/>
</filter>
</defs>
</svg>
